<svg width="30" height="27" viewBox="0 0 30 27" fill="none" xmlns="http://www.w3.org/2000/svg">
<g clip-path="url(#clip0_6781_2495)">
<path d="M6.78617 2.20118C10.111 4.69723 13.6872 9.75818 15.0002 12.4742C16.3133 9.75838 19.8893 4.69718 23.2142 2.20118C25.6132 0.400126 29.5002 -0.993424 29.5002 3.44093C29.5002 4.32653 28.9924 10.8804 28.6946 11.9444C27.6595 15.6436 23.8874 16.5871 20.5321 16.0161C26.3971 17.0143 27.8891 20.3207 24.667 23.6271C18.5475 29.9066 15.8715 22.0515 15.1855 20.0388C15.0598 19.6698 15.0009 19.4972 15.0001 19.644C14.9992 19.4972 14.9404 19.6698 14.8147 20.0388C14.129 22.0515 11.4531 29.9068 5.3332 23.6271C2.111 20.3207 3.60295 17.0141 9.46805 16.0161C6.11265 16.5871 2.34055 15.6436 1.30555 11.9444C1.00774 10.8803 0.5 4.32643 0.5 3.44093C0.5 -0.993424 4.3871 0.400126 6.786 2.20118H6.78617Z" fill="white"/>
</g>
<defs>
<clipPath id="clip0_6781_2495">
<rect width="30" height="26.5" fill="white"/>
</clipPath>
</defs>
</svg>
