<svg width="21" height="17" viewBox="0 0 21 17" fill="#ffffff" xmlns="http://www.w3.org/2000/svg">
<path d="M0.75 0C0.33579 0 0 0.33579 0 0.75V3.75C0 6.09721 1.90279 8 4.25 8H5V15.75C5 16.1642 5.33579 16.5 5.75 16.5H9.75C10.1642 16.5 10.5 16.1642 10.5 15.75V7.75C10.5 6.5074 11.5074 5.5 12.75 5.5C13.9926 5.5 15 6.5074 15 7.75V15.75C15 16.1642 15.3358 16.5 15.75 16.5H19.75C20.1642 16.5 20.5 16.1642 20.5 15.75V7.75C20.5 3.46979 17.0302 0 12.75 0C10.0381 0 7.65238 1.39326 6.26833 3.5H6.25C5.83579 3.5 5.5 3.16421 5.5 2.75V0.75C5.5 0.33579 5.16421 0 4.75 0H0.75Z" fill="white"/>
</svg>
