<svg width="30" height="30" viewBox="0 0 30 30" fill="none" xmlns="http://www.w3.org/2000/svg">
<g clip-path="url(#clip0_6781_2501)">
<path d="M28.0819 12.3325C25.4081 12.3325 22.9294 11.4775 20.9069 10.025V20.5063C20.9069 25.7413 16.6481 29.9988 11.4144 29.9988C9.39187 29.9988 7.51562 29.3613 5.97437 28.2788C3.52687 26.56 1.92188 23.7175 1.92188 20.5063C1.92188 15.2713 6.18063 11.0125 11.4156 11.0125C11.8506 11.0125 12.2756 11.0488 12.6944 11.105V12.3263V16.37C12.2894 16.2438 11.8619 16.17 11.4156 16.17C9.02563 16.17 7.08062 18.115 7.08062 20.5063C7.08062 22.1713 8.02563 23.6175 9.40563 24.3438C10.0069 24.66 10.6906 24.8413 11.4169 24.8413C13.7519 24.8413 15.6569 22.9838 15.7444 20.6688L15.7481 0H20.9056C20.9056 0.4475 20.9494 0.88375 21.0269 1.30875C21.3906 3.27375 22.5569 4.96 24.1731 6.01375C25.2981 6.7475 26.6406 7.17625 28.0806 7.17625L28.0819 12.3325Z" fill="white"/>
</g>
<defs>
<clipPath id="clip0_6781_2501">
<rect width="30" height="30" fill="white"/>
</clipPath>
</defs>
</svg>